<mxfile host="www.draw.io" modified="2019-11-25T08:23:29.153Z" agent="Mozilla/5.0 (Macintosh; Intel Mac OS X 10_14_4) AppleWebKit/537.36 (KHTML, like Gecko) Chrome/78.0.3904.108 Safari/537.36" etag="hWVv4gg50NqwOPT3Fltp" version="12.2.9" type="github" pages="1">
  <diagram id="130WKjdTwqU9Hsnkw1hB" name="Page-1">
    <mxGraphModel dx="946" dy="533" grid="1" gridSize="10" guides="1" tooltips="1" connect="1" arrows="1" fold="1" page="1" pageScale="1" pageWidth="827" pageHeight="1169" math="0" shadow="0">
      <root>
        <mxCell id="0"/>
        <mxCell id="1" parent="0"/>
        <mxCell id="kDa3zQPtUkxCUOgXR0Jn-1" value="" style="rounded=0;whiteSpace=wrap;html=1;dashed=1;" vertex="1" parent="1">
          <mxGeometry x="113" y="120" width="600" height="360" as="geometry"/>
        </mxCell>
        <mxCell id="kDa3zQPtUkxCUOgXR0Jn-2" value="易达巡检机器人监控平台" style="text;html=1;strokeColor=none;fillColor=none;align=center;verticalAlign=middle;whiteSpace=wrap;rounded=0;dashed=1;fontSize=18;" vertex="1" parent="1">
          <mxGeometry x="298" y="40" width="230" height="20" as="geometry"/>
        </mxCell>
      </root>
    </mxGraphModel>
  </diagram>
</mxfile>
